<mxfile host="app.diagrams.net" agent="Mozilla/5.0 (Macintosh; Intel Mac OS X 10_15_7) AppleWebKit/537.36 (KHTML, like Gecko) Chrome/128.0.0.0 Safari/537.36" version="24.7.17" pages="3">
  <diagram name="全量DR" id="YKctSjIoEm7BjZwlFTs_">
    <mxGraphModel dx="1136" dy="717" grid="0" gridSize="10" guides="1" tooltips="1" connect="1" arrows="1" fold="1" page="1" pageScale="1" pageWidth="3300" pageHeight="4681" math="0" shadow="0">
      <root>
        <mxCell id="0" />
        <mxCell id="1" parent="0" />
        <mxCell id="PhbN5V981B9z1eHkhAEl-10" value="" style="rounded=0;whiteSpace=wrap;html=1;dashed=1;" vertex="1" parent="1">
          <mxGeometry x="920" y="160" width="116" height="60" as="geometry" />
        </mxCell>
        <mxCell id="JRduzES7VKkpToxxvawm-29" value="" style="rounded=0;whiteSpace=wrap;html=1;fillColor=#dae8fc;strokeColor=#6c8ebf;" parent="1" vertex="1">
          <mxGeometry x="535" y="545" width="340" height="80" as="geometry" />
        </mxCell>
        <mxCell id="JRduzES7VKkpToxxvawm-5" value="" style="outlineConnect=0;dashed=0;verticalLabelPosition=bottom;verticalAlign=top;align=center;html=1;shape=mxgraph.aws3.bucket_with_objects;fillColor=#d5e8d4;strokeColor=#82b366;" parent="1" vertex="1">
          <mxGeometry x="530" y="363" width="90" height="70" as="geometry" />
        </mxCell>
        <mxCell id="JRduzES7VKkpToxxvawm-10" value="" style="endArrow=classic;html=1;rounded=0;entryX=0.25;entryY=0;entryDx=0;entryDy=0;fillColor=#d5e8d4;strokeColor=#82b366;strokeWidth=2;exitX=0.25;exitY=1;exitDx=0;exitDy=0;edgeStyle=orthogonalEdgeStyle;" parent="1" edge="1" source="PhbN5V981B9z1eHkhAEl-1">
          <mxGeometry width="50" height="50" relative="1" as="geometry">
            <mxPoint x="574" y="262" as="sourcePoint" />
            <mxPoint x="575.47" y="366" as="targetPoint" />
          </mxGeometry>
        </mxCell>
        <mxCell id="JRduzES7VKkpToxxvawm-19" value="" style="outlineConnect=0;dashed=0;verticalLabelPosition=bottom;verticalAlign=top;align=center;html=1;shape=mxgraph.aws3.bucket_with_objects;fillColor=#E05243;gradientColor=none;" parent="1" vertex="1">
          <mxGeometry x="800" y="366" width="90" height="70" as="geometry" />
        </mxCell>
        <mxCell id="JRduzES7VKkpToxxvawm-20" value="&lt;b&gt;download: vod.uss.shopee.io&lt;/b&gt;" style="text;html=1;align=center;verticalAlign=middle;whiteSpace=wrap;rounded=0;" parent="1" vertex="1">
          <mxGeometry x="490" y="300" width="180" height="30" as="geometry" />
        </mxCell>
        <mxCell id="JRduzES7VKkpToxxvawm-21" value="" style="shape=flexArrow;endArrow=classic;html=1;rounded=0;fillColor=#d5e8d4;strokeColor=#82b366;" parent="1" edge="1">
          <mxGeometry width="50" height="50" relative="1" as="geometry">
            <mxPoint x="625" y="420" as="sourcePoint" />
            <mxPoint x="785" y="420" as="targetPoint" />
          </mxGeometry>
        </mxCell>
        <mxCell id="JRduzES7VKkpToxxvawm-22" value="正常数据同步" style="text;html=1;align=center;verticalAlign=middle;whiteSpace=wrap;rounded=0;" parent="1" vertex="1">
          <mxGeometry x="630" y="433" width="150" height="24" as="geometry" />
        </mxCell>
        <mxCell id="JRduzES7VKkpToxxvawm-24" style="edgeStyle=orthogonalEdgeStyle;rounded=0;orthogonalLoop=1;jettySize=auto;html=1;exitX=0.75;exitY=1;exitDx=0;exitDy=0;entryX=0.5;entryY=0;entryDx=0;entryDy=0;entryPerimeter=0;fillColor=#f8cecc;strokeColor=#b85450;strokeWidth=2;" parent="1" source="PhbN5V981B9z1eHkhAEl-1" target="JRduzES7VKkpToxxvawm-19" edge="1">
          <mxGeometry relative="1" as="geometry" />
        </mxCell>
        <mxCell id="JRduzES7VKkpToxxvawm-27" value="业务上传" style="rounded=0;whiteSpace=wrap;html=1;fillColor=#ffcc99;strokeColor=#36393d;" parent="1" vertex="1">
          <mxGeometry x="570" y="555" width="120" height="60" as="geometry" />
        </mxCell>
        <mxCell id="JRduzES7VKkpToxxvawm-28" value="内部流程上传" style="rounded=0;whiteSpace=wrap;html=1;fillColor=#ffcc99;strokeColor=#36393d;" parent="1" vertex="1">
          <mxGeometry x="715" y="555" width="120" height="60" as="geometry" />
        </mxCell>
        <mxCell id="JRduzES7VKkpToxxvawm-30" style="edgeStyle=orthogonalEdgeStyle;rounded=0;orthogonalLoop=1;jettySize=auto;html=1;exitX=0.25;exitY=0;exitDx=0;exitDy=0;entryX=0.5;entryY=1;entryDx=0;entryDy=0;entryPerimeter=0;fillColor=#d5e8d4;strokeColor=#82b366;endSize=6;strokeWidth=2;" parent="1" source="JRduzES7VKkpToxxvawm-29" target="JRduzES7VKkpToxxvawm-5" edge="1">
          <mxGeometry relative="1" as="geometry" />
        </mxCell>
        <mxCell id="JRduzES7VKkpToxxvawm-31" style="edgeStyle=orthogonalEdgeStyle;rounded=0;orthogonalLoop=1;jettySize=auto;html=1;exitX=0.75;exitY=0;exitDx=0;exitDy=0;entryX=0.5;entryY=1;entryDx=0;entryDy=0;entryPerimeter=0;fillColor=#f8cecc;strokeColor=#b85450;strokeWidth=2;" parent="1" source="JRduzES7VKkpToxxvawm-29" target="JRduzES7VKkpToxxvawm-19" edge="1">
          <mxGeometry relative="1" as="geometry" />
        </mxCell>
        <mxCell id="JRduzES7VKkpToxxvawm-32" value="&lt;b&gt;download: vod.uss.shopee.io&lt;/b&gt;" style="text;html=1;align=center;verticalAlign=middle;whiteSpace=wrap;rounded=0;" parent="1" vertex="1">
          <mxGeometry x="755" y="300" width="180" height="30" as="geometry" />
        </mxCell>
        <mxCell id="JRduzES7VKkpToxxvawm-33" value="&lt;b&gt;upload: vod.uss.shopee.io&lt;/b&gt;" style="text;html=1;align=center;verticalAlign=middle;whiteSpace=wrap;rounded=0;" parent="1" vertex="1">
          <mxGeometry x="740" y="490" width="180" height="30" as="geometry" />
        </mxCell>
        <mxCell id="JRduzES7VKkpToxxvawm-34" value="&lt;b&gt;upload: vod.uss.shopee.io&lt;/b&gt;" style="text;html=1;align=center;verticalAlign=middle;whiteSpace=wrap;rounded=0;" parent="1" vertex="1">
          <mxGeometry x="500" y="490" width="180" height="30" as="geometry" />
        </mxCell>
        <mxCell id="JRduzES7VKkpToxxvawm-35" value="" style="shape=flexArrow;endArrow=classic;html=1;rounded=0;fillColor=#f8cecc;strokeColor=#b85450;dashed=1;" parent="1" edge="1">
          <mxGeometry width="50" height="50" relative="1" as="geometry">
            <mxPoint x="780" y="390" as="sourcePoint" />
            <mxPoint x="620" y="390" as="targetPoint" />
          </mxGeometry>
        </mxCell>
        <mxCell id="JRduzES7VKkpToxxvawm-36" value="容灾恢复数据同步" style="text;html=1;align=center;verticalAlign=middle;whiteSpace=wrap;rounded=0;" parent="1" vertex="1">
          <mxGeometry x="630" y="360" width="150" height="24" as="geometry" />
        </mxCell>
        <mxCell id="PhbN5V981B9z1eHkhAEl-1" value="" style="rounded=0;whiteSpace=wrap;html=1;fillColor=#fff2cc;strokeColor=#d6b656;" vertex="1" parent="1">
          <mxGeometry x="535" y="160" width="340" height="80" as="geometry" />
        </mxCell>
        <mxCell id="PhbN5V981B9z1eHkhAEl-2" value="CDN 回源" style="rounded=0;whiteSpace=wrap;html=1;fillColor=#ffcc99;strokeColor=#36393d;" vertex="1" parent="1">
          <mxGeometry x="570" y="170" width="120" height="60" as="geometry" />
        </mxCell>
        <mxCell id="PhbN5V981B9z1eHkhAEl-3" value="内网下载" style="rounded=0;whiteSpace=wrap;html=1;fillColor=#ffcc99;strokeColor=#36393d;" vertex="1" parent="1">
          <mxGeometry x="715" y="170" width="120" height="60" as="geometry" />
        </mxCell>
        <mxCell id="PhbN5V981B9z1eHkhAEl-4" value="&lt;b&gt;USS（MY）&lt;/b&gt;" style="text;html=1;align=center;verticalAlign=middle;whiteSpace=wrap;rounded=0;" vertex="1" parent="1">
          <mxGeometry x="810" y="390" width="90" height="30" as="geometry" />
        </mxCell>
        <mxCell id="PhbN5V981B9z1eHkhAEl-5" value="&lt;b&gt;USS（SG）&lt;/b&gt;" style="text;html=1;align=center;verticalAlign=middle;whiteSpace=wrap;rounded=0;" vertex="1" parent="1">
          <mxGeometry x="535" y="390" width="90" height="30" as="geometry" />
        </mxCell>
        <mxCell id="PhbN5V981B9z1eHkhAEl-6" value="" style="endArrow=classic;html=1;rounded=0;fillColor=#f8cecc;strokeColor=#b85450;strokeWidth=2;" edge="1" parent="1">
          <mxGeometry width="50" height="50" relative="1" as="geometry">
            <mxPoint x="930" y="175" as="sourcePoint" />
            <mxPoint x="970" y="175" as="targetPoint" />
          </mxGeometry>
        </mxCell>
        <mxCell id="PhbN5V981B9z1eHkhAEl-7" value="" style="endArrow=classic;html=1;rounded=0;fillColor=#d5e8d4;strokeColor=#82b366;strokeWidth=2;" edge="1" parent="1">
          <mxGeometry width="50" height="50" relative="1" as="geometry">
            <mxPoint x="930" y="204" as="sourcePoint" />
            <mxPoint x="970" y="204.13" as="targetPoint" />
          </mxGeometry>
        </mxCell>
        <mxCell id="PhbN5V981B9z1eHkhAEl-8" value="正常链路" style="text;html=1;align=center;verticalAlign=middle;whiteSpace=wrap;rounded=0;" vertex="1" parent="1">
          <mxGeometry x="973" y="190" width="60" height="30" as="geometry" />
        </mxCell>
        <mxCell id="PhbN5V981B9z1eHkhAEl-9" value="容灾链路" style="text;html=1;align=center;verticalAlign=middle;whiteSpace=wrap;rounded=0;" vertex="1" parent="1">
          <mxGeometry x="973" y="160" width="60" height="30" as="geometry" />
        </mxCell>
      </root>
    </mxGraphModel>
  </diagram>
  <diagram id="K9-HMxT2A7QBCiA9xLb1" name="热点DR">
    <mxGraphModel dx="1306" dy="825" grid="1" gridSize="10" guides="1" tooltips="1" connect="1" arrows="1" fold="1" page="1" pageScale="1" pageWidth="3300" pageHeight="4681" math="0" shadow="0">
      <root>
        <mxCell id="0" />
        <mxCell id="1" parent="0" />
        <mxCell id="UEH2vTbXUI8pVYLRnjXU-1" value="" style="rounded=0;whiteSpace=wrap;html=1;dashed=1;fillColor=#f5f5f5;fontColor=#333333;strokeColor=#666666;" vertex="1" parent="1">
          <mxGeometry x="340" y="758" width="415" height="252" as="geometry" />
        </mxCell>
        <mxCell id="WPdxCpdsx5S1xaeiAmBc-8" value="" style="rounded=0;whiteSpace=wrap;html=1;dashed=1;fillColor=#f5f5f5;fontColor=#333333;strokeColor=#666666;" vertex="1" parent="1">
          <mxGeometry x="759" y="324" width="263" height="123" as="geometry" />
        </mxCell>
        <mxCell id="xZxM6BySM-8g0o_TbWNT-10" value="vid view record hive" style="strokeWidth=1;html=1;shape=mxgraph.flowchart.database;whiteSpace=wrap;fontStyle=1;fillColor=#dae8fc;strokeColor=#6c8ebf;" vertex="1" parent="1">
          <mxGeometry x="503.74" y="772.5" width="110" height="60" as="geometry" />
        </mxCell>
        <mxCell id="xZxM6BySM-8g0o_TbWNT-11" style="edgeStyle=orthogonalEdgeStyle;rounded=0;orthogonalLoop=1;jettySize=auto;html=1;exitX=1;exitY=0.5;exitDx=0;exitDy=0;entryX=0;entryY=0.5;entryDx=0;entryDy=0;fontStyle=1;strokeWidth=1;fillColor=#f8cecc;strokeColor=#b85450;" edge="1" parent="1" source="xZxM6BySM-8g0o_TbWNT-12" target="xZxM6BySM-8g0o_TbWNT-14">
          <mxGeometry relative="1" as="geometry" />
        </mxCell>
        <mxCell id="xZxM6BySM-8g0o_TbWNT-12" value="playuser" style="strokeColor=#dddddd;shadow=1;strokeWidth=1;rounded=1;absoluteArcSize=1;arcSize=2;labelPosition=center;verticalLabelPosition=middle;align=center;verticalAlign=bottom;spacingLeft=0;fontColor=#999999;fontSize=12;whiteSpace=wrap;spacingBottom=2;html=1;fontStyle=1" vertex="1" parent="1">
          <mxGeometry x="352" y="880" width="70" height="85" as="geometry" />
        </mxCell>
        <mxCell id="xZxM6BySM-8g0o_TbWNT-13" value="" style="sketch=0;dashed=0;connectable=0;html=1;fillColor=#757575;strokeColor=none;shape=mxgraph.gcp2.phone;part=1;fontStyle=1;strokeWidth=1;" vertex="1" parent="xZxM6BySM-8g0o_TbWNT-12">
          <mxGeometry x="0.5" width="32" height="50" relative="1" as="geometry">
            <mxPoint x="-16" y="10" as="offset" />
          </mxGeometry>
        </mxCell>
        <mxCell id="xZxM6BySM-8g0o_TbWNT-14" value="data web" style="rounded=0;whiteSpace=wrap;html=1;fontStyle=1;strokeWidth=1;fillColor=#dae8fc;strokeColor=#6c8ebf;" vertex="1" parent="1">
          <mxGeometry x="498.74" y="892.5" width="120" height="60" as="geometry" />
        </mxCell>
        <mxCell id="xZxM6BySM-8g0o_TbWNT-15" style="edgeStyle=orthogonalEdgeStyle;rounded=0;orthogonalLoop=1;jettySize=auto;html=1;exitX=1;exitY=0.5;exitDx=0;exitDy=0;fontStyle=1;strokeWidth=1;fillColor=#f8cecc;strokeColor=#b85450;" edge="1" parent="1" source="xZxM6BySM-8g0o_TbWNT-16" target="xZxM6BySM-8g0o_TbWNT-19">
          <mxGeometry relative="1" as="geometry" />
        </mxCell>
        <mxCell id="xZxM6BySM-8g0o_TbWNT-16" value="query job&lt;br&gt;(daily crontask)" style="rounded=0;whiteSpace=wrap;html=1;fontStyle=1;strokeWidth=1;fillColor=#dae8fc;strokeColor=#6c8ebf;" vertex="1" parent="1">
          <mxGeometry x="631.74" y="892.5" width="120" height="60" as="geometry" />
        </mxCell>
        <mxCell id="xZxM6BySM-8g0o_TbWNT-17" style="edgeStyle=orthogonalEdgeStyle;rounded=0;orthogonalLoop=1;jettySize=auto;html=1;exitX=1;exitY=0.5;exitDx=0;exitDy=0;exitPerimeter=0;entryX=0;entryY=0.5;entryDx=0;entryDy=0;fontStyle=1;strokeWidth=1;fillColor=#dae8fc;strokeColor=#6c8ebf;" edge="1" parent="1" source="xZxM6BySM-8g0o_TbWNT-19" target="xZxM6BySM-8g0o_TbWNT-22">
          <mxGeometry relative="1" as="geometry" />
        </mxCell>
        <mxCell id="xZxM6BySM-8g0o_TbWNT-18" style="edgeStyle=orthogonalEdgeStyle;rounded=0;orthogonalLoop=1;jettySize=auto;html=1;exitX=1;exitY=0.5;exitDx=0;exitDy=0;exitPerimeter=0;entryX=0;entryY=0.5;entryDx=0;entryDy=0;fontStyle=1;strokeWidth=1;fillColor=#dae8fc;strokeColor=#6c8ebf;" edge="1" parent="1" source="xZxM6BySM-8g0o_TbWNT-19" target="xZxM6BySM-8g0o_TbWNT-40">
          <mxGeometry relative="1" as="geometry" />
        </mxCell>
        <mxCell id="xZxM6BySM-8g0o_TbWNT-19" value="kafka" style="strokeWidth=1;html=1;shape=mxgraph.flowchart.direct_data;whiteSpace=wrap;fontStyle=1;fillColor=#d5e8d4;strokeColor=#82b366;" vertex="1" parent="1">
          <mxGeometry x="872" y="892.5" width="100" height="60" as="geometry" />
        </mxCell>
        <mxCell id="xZxM6BySM-8g0o_TbWNT-21" style="edgeStyle=orthogonalEdgeStyle;rounded=0;orthogonalLoop=1;jettySize=auto;html=1;exitX=1;exitY=0.75;exitDx=0;exitDy=0;strokeWidth=2;fillColor=#e51400;strokeColor=#B20000;" edge="1" parent="1" source="xZxM6BySM-8g0o_TbWNT-22" target="xZxM6BySM-8g0o_TbWNT-67">
          <mxGeometry relative="1" as="geometry">
            <mxPoint x="1227" y="874.375" as="targetPoint" />
          </mxGeometry>
        </mxCell>
        <mxCell id="xZxM6BySM-8g0o_TbWNT-22" value="video migrate" style="rounded=0;whiteSpace=wrap;html=1;fontStyle=1;strokeWidth=1;fillColor=#fff2cc;strokeColor=#d6b656;" vertex="1" parent="1">
          <mxGeometry x="1032" y="802.5" width="120" height="60" as="geometry" />
        </mxCell>
        <mxCell id="xZxM6BySM-8g0o_TbWNT-23" style="edgeStyle=orthogonalEdgeStyle;rounded=0;orthogonalLoop=1;jettySize=auto;html=1;exitX=0.06;exitY=0.5;exitDx=0;exitDy=0;exitPerimeter=0;entryX=1;entryY=0.25;entryDx=0;entryDy=0;fontStyle=1;strokeWidth=1;" edge="1" parent="1" source="xZxM6BySM-8g0o_TbWNT-24" target="xZxM6BySM-8g0o_TbWNT-22">
          <mxGeometry relative="1" as="geometry" />
        </mxCell>
        <mxCell id="xZxM6BySM-8g0o_TbWNT-24" value="spos-sg-02" style="outlineConnect=0;dashed=0;verticalLabelPosition=bottom;verticalAlign=top;align=center;html=1;shape=mxgraph.aws3.bucket_with_objects;fillColor=#d5e8d4;fontStyle=1;strokeWidth=1;strokeColor=#82b366;" vertex="1" parent="1">
          <mxGeometry x="1252" y="706.5" width="60" height="61.5" as="geometry" />
        </mxCell>
        <mxCell id="xZxM6BySM-8g0o_TbWNT-25" value="vod:mediamanager&lt;br&gt;img:imagemanager" style="rounded=0;whiteSpace=wrap;html=1;fontStyle=1;strokeWidth=1;fillColor=#fff2cc;strokeColor=#d6b656;" vertex="1" parent="1">
          <mxGeometry x="762" y="772.5" width="120" height="60" as="geometry" />
        </mxCell>
        <mxCell id="xZxM6BySM-8g0o_TbWNT-27" style="edgeStyle=orthogonalEdgeStyle;rounded=0;orthogonalLoop=1;jettySize=auto;html=1;exitX=0.5;exitY=1;exitDx=0;exitDy=0;entryX=1;entryY=0.5;entryDx=0;entryDy=0;fontStyle=1;strokeWidth=1;fillColor=#d5e8d4;strokeColor=#82b366;" edge="1" parent="1" source="xZxM6BySM-8g0o_TbWNT-28" target="xZxM6BySM-8g0o_TbWNT-25">
          <mxGeometry relative="1" as="geometry" />
        </mxCell>
        <mxCell id="xZxM6BySM-8g0o_TbWNT-28" value="transcode" style="rounded=0;whiteSpace=wrap;html=1;fontStyle=1;strokeWidth=1;fillColor=#ffe6cc;strokeColor=#d79b00;" vertex="1" parent="1">
          <mxGeometry x="942.24" y="662.5" width="120" height="60" as="geometry" />
        </mxCell>
        <mxCell id="xZxM6BySM-8g0o_TbWNT-29" style="edgeStyle=orthogonalEdgeStyle;rounded=0;orthogonalLoop=1;jettySize=auto;html=1;exitX=0.5;exitY=1;exitDx=0;exitDy=0;fontStyle=1;strokeWidth=1;fillColor=#d5e8d4;strokeColor=#82b366;" edge="1" parent="1" source="xZxM6BySM-8g0o_TbWNT-31" target="xZxM6BySM-8g0o_TbWNT-25">
          <mxGeometry relative="1" as="geometry" />
        </mxCell>
        <mxCell id="xZxM6BySM-8g0o_TbWNT-30" style="edgeStyle=orthogonalEdgeStyle;rounded=0;orthogonalLoop=1;jettySize=auto;html=1;exitX=1;exitY=0.5;exitDx=0;exitDy=0;fontStyle=1;strokeWidth=1;fillColor=#d5e8d4;strokeColor=#82b366;" edge="1" parent="1" source="xZxM6BySM-8g0o_TbWNT-31" target="xZxM6BySM-8g0o_TbWNT-28">
          <mxGeometry relative="1" as="geometry" />
        </mxCell>
        <mxCell id="xZxM6BySM-8g0o_TbWNT-31" value="uploadapi" style="rounded=0;whiteSpace=wrap;html=1;fontStyle=1;strokeWidth=1;fillColor=#ffe6cc;strokeColor=#d79b00;" vertex="1" parent="1">
          <mxGeometry x="762" y="662.5" width="120" height="60" as="geometry" />
        </mxCell>
        <mxCell id="xZxM6BySM-8g0o_TbWNT-32" style="edgeStyle=orthogonalEdgeStyle;rounded=0;orthogonalLoop=1;jettySize=auto;html=1;exitX=1;exitY=0.5;exitDx=0;exitDy=0;entryX=0;entryY=0.5;entryDx=0;entryDy=0;fontStyle=1;strokeWidth=1;fillColor=#d5e8d4;strokeColor=#82b366;" edge="1" parent="1" source="xZxM6BySM-8g0o_TbWNT-33" target="xZxM6BySM-8g0o_TbWNT-31">
          <mxGeometry relative="1" as="geometry" />
        </mxCell>
        <mxCell id="xZxM6BySM-8g0o_TbWNT-33" value="uploaduser" style="strokeColor=#dddddd;shadow=1;strokeWidth=1;rounded=1;absoluteArcSize=1;arcSize=2;labelPosition=center;verticalLabelPosition=middle;align=center;verticalAlign=bottom;spacingLeft=0;fontColor=#999999;fontSize=12;whiteSpace=wrap;spacingBottom=2;html=1;fontStyle=1" vertex="1" parent="1">
          <mxGeometry x="352" y="650" width="70" height="85" as="geometry" />
        </mxCell>
        <mxCell id="xZxM6BySM-8g0o_TbWNT-34" value="" style="sketch=0;dashed=0;connectable=0;html=1;fillColor=#757575;strokeColor=none;shape=mxgraph.gcp2.phone;part=1;fontStyle=1;strokeWidth=1;" vertex="1" parent="xZxM6BySM-8g0o_TbWNT-33">
          <mxGeometry x="0.5" width="32" height="50" relative="1" as="geometry">
            <mxPoint x="-16" y="10" as="offset" />
          </mxGeometry>
        </mxCell>
        <mxCell id="xZxM6BySM-8g0o_TbWNT-35" style="edgeStyle=orthogonalEdgeStyle;rounded=0;orthogonalLoop=1;jettySize=auto;html=1;exitX=0.5;exitY=1;exitDx=0;exitDy=0;entryX=0;entryY=0.208;entryDx=0;entryDy=0;entryPerimeter=0;fontStyle=1;strokeWidth=1;fillColor=#d5e8d4;strokeColor=#82b366;" edge="1" parent="1" source="xZxM6BySM-8g0o_TbWNT-25" target="xZxM6BySM-8g0o_TbWNT-19">
          <mxGeometry relative="1" as="geometry" />
        </mxCell>
        <mxCell id="xZxM6BySM-8g0o_TbWNT-36" value="热点播放vid统计" style="text;html=1;strokeColor=none;fillColor=none;align=center;verticalAlign=middle;whiteSpace=wrap;rounded=0;fontStyle=1;strokeWidth=1;" vertex="1" parent="1">
          <mxGeometry x="600" y="820" width="110" height="30" as="geometry" />
        </mxCell>
        <mxCell id="xZxM6BySM-8g0o_TbWNT-37" value="核心业务新上传文件&lt;br&gt;（图片和视频）" style="text;html=1;strokeColor=none;fillColor=none;align=center;verticalAlign=middle;whiteSpace=wrap;rounded=0;fontStyle=1;strokeWidth=1;" vertex="1" parent="1">
          <mxGeometry x="782" y="850" width="110" height="30" as="geometry" />
        </mxCell>
        <mxCell id="xZxM6BySM-8g0o_TbWNT-39" style="edgeStyle=orthogonalEdgeStyle;rounded=0;orthogonalLoop=1;jettySize=auto;html=1;exitX=1;exitY=0.25;exitDx=0;exitDy=0;entryX=0.06;entryY=0.5;entryDx=0;entryDy=0;entryPerimeter=0;strokeWidth=2;fillColor=#e51400;strokeColor=#B20000;" edge="1" parent="1" source="xZxM6BySM-8g0o_TbWNT-40" target="xZxM6BySM-8g0o_TbWNT-69">
          <mxGeometry relative="1" as="geometry">
            <Array as="points">
              <mxPoint x="1182" y="1006.75" />
              <mxPoint x="1182" y="950.75" />
            </Array>
          </mxGeometry>
        </mxCell>
        <mxCell id="xZxM6BySM-8g0o_TbWNT-40" value="image server" style="rounded=0;whiteSpace=wrap;html=1;fontStyle=1;strokeWidth=1;fillColor=#e1d5e7;strokeColor=#9673a6;" vertex="1" parent="1">
          <mxGeometry x="1032" y="991.25" width="120" height="60" as="geometry" />
        </mxCell>
        <mxCell id="xZxM6BySM-8g0o_TbWNT-41" style="edgeStyle=orthogonalEdgeStyle;rounded=0;orthogonalLoop=1;jettySize=auto;html=1;exitX=0.06;exitY=0.5;exitDx=0;exitDy=0;exitPerimeter=0;entryX=1;entryY=0.75;entryDx=0;entryDy=0;fontStyle=1;strokeWidth=1;" edge="1" parent="1" source="xZxM6BySM-8g0o_TbWNT-42" target="xZxM6BySM-8g0o_TbWNT-40">
          <mxGeometry relative="1" as="geometry" />
        </mxCell>
        <mxCell id="xZxM6BySM-8g0o_TbWNT-42" value="spos-sg-01" style="outlineConnect=0;dashed=0;verticalLabelPosition=bottom;verticalAlign=top;align=center;html=1;shape=mxgraph.aws3.bucket_with_objects;fillColor=#d5e8d4;fontStyle=1;strokeWidth=1;strokeColor=#82b366;" vertex="1" parent="1">
          <mxGeometry x="1252" y="1038.25" width="60" height="61.5" as="geometry" />
        </mxCell>
        <mxCell id="xZxM6BySM-8g0o_TbWNT-43" value="图片双写" style="text;html=1;strokeColor=none;fillColor=none;align=center;verticalAlign=middle;whiteSpace=wrap;rounded=0;fontStyle=1;strokeWidth=1;" vertex="1" parent="1">
          <mxGeometry x="942.24" y="970.25" width="60" height="30" as="geometry" />
        </mxCell>
        <mxCell id="xZxM6BySM-8g0o_TbWNT-44" value="视频双写" style="text;html=1;strokeColor=none;fillColor=none;align=center;verticalAlign=middle;whiteSpace=wrap;rounded=0;fontStyle=1;strokeWidth=1;" vertex="1" parent="1">
          <mxGeometry x="942.24" y="852.5" width="60" height="30" as="geometry" />
        </mxCell>
        <mxCell id="xZxM6BySM-8g0o_TbWNT-45" value="视频转码后文件" style="text;html=1;strokeColor=none;fillColor=none;align=center;verticalAlign=middle;whiteSpace=wrap;rounded=0;fontStyle=1;strokeWidth=1;" vertex="1" parent="1">
          <mxGeometry x="902" y="772.5" width="110" height="30" as="geometry" />
        </mxCell>
        <mxCell id="xZxM6BySM-8g0o_TbWNT-46" value="视频/图片新上传源文件" style="text;html=1;strokeColor=none;fillColor=none;align=center;verticalAlign=middle;whiteSpace=wrap;rounded=0;fontStyle=1;strokeWidth=1;" vertex="1" parent="1">
          <mxGeometry x="747" y="722.5" width="150" height="30" as="geometry" />
        </mxCell>
        <mxCell id="xZxM6BySM-8g0o_TbWNT-47" style="edgeStyle=orthogonalEdgeStyle;rounded=0;orthogonalLoop=1;jettySize=auto;html=1;exitX=0.5;exitY=0;exitDx=0;exitDy=0;entryX=0.5;entryY=1;entryDx=0;entryDy=0;entryPerimeter=0;fontStyle=1;strokeWidth=1;fillColor=#f8cecc;strokeColor=#b85450;" edge="1" parent="1" source="xZxM6BySM-8g0o_TbWNT-14" target="xZxM6BySM-8g0o_TbWNT-10">
          <mxGeometry relative="1" as="geometry" />
        </mxCell>
        <mxCell id="xZxM6BySM-8g0o_TbWNT-48" style="edgeStyle=orthogonalEdgeStyle;rounded=0;orthogonalLoop=1;jettySize=auto;html=1;exitX=0.5;exitY=0;exitDx=0;exitDy=0;entryX=1;entryY=0.5;entryDx=0;entryDy=0;entryPerimeter=0;fontStyle=1;strokeWidth=1;fillColor=#f8cecc;strokeColor=#b85450;" edge="1" parent="1" source="xZxM6BySM-8g0o_TbWNT-16" target="xZxM6BySM-8g0o_TbWNT-10">
          <mxGeometry relative="1" as="geometry" />
        </mxCell>
        <mxCell id="xZxM6BySM-8g0o_TbWNT-52" value="播放视频埋点" style="text;html=1;strokeColor=none;fillColor=none;align=center;verticalAlign=middle;whiteSpace=wrap;rounded=0;fontStyle=1;strokeWidth=1;" vertex="1" parent="1">
          <mxGeometry x="380" y="922.5" width="145" height="30" as="geometry" />
        </mxCell>
        <mxCell id="xZxM6BySM-8g0o_TbWNT-57" value="业务appid: 11110xxx" style="text;html=1;strokeColor=none;fillColor=none;align=center;verticalAlign=middle;whiteSpace=wrap;rounded=0;fontStyle=1;strokeWidth=1;" vertex="1" parent="1">
          <mxGeometry x="1112" y="706.5" width="130" height="30" as="geometry" />
        </mxCell>
        <mxCell id="xZxM6BySM-8g0o_TbWNT-58" value="业务appid: 1113xxxx" style="text;html=1;strokeColor=none;fillColor=none;align=center;verticalAlign=middle;whiteSpace=wrap;rounded=0;fontStyle=1;strokeWidth=1;" vertex="1" parent="1">
          <mxGeometry x="1132" y="1072.25" width="130" height="30" as="geometry" />
        </mxCell>
        <mxCell id="xZxM6BySM-8g0o_TbWNT-67" value="WS&amp;nbsp; Storage" style="outlineConnect=0;dashed=0;verticalLabelPosition=bottom;verticalAlign=top;align=center;html=1;shape=mxgraph.aws3.bucket_with_objects;fillColor=#e51400;strokeColor=#B20000;fontColor=#ffffff;" vertex="1" parent="1">
          <mxGeometry x="1252" y="817.5" width="60" height="60.25" as="geometry" />
        </mxCell>
        <mxCell id="xZxM6BySM-8g0o_TbWNT-69" value="" style="outlineConnect=0;dashed=0;verticalLabelPosition=bottom;verticalAlign=top;align=center;html=1;shape=mxgraph.aws3.bucket_with_objects;fillColor=#e51400;strokeColor=#B20000;fontColor=#ffffff;" vertex="1" parent="1">
          <mxGeometry x="1252" y="921" width="60" height="60.25" as="geometry" />
        </mxCell>
        <mxCell id="xZxM6BySM-8g0o_TbWNT-70" value="&lt;b&gt;热点视频同步&lt;br&gt;（固定Appid）&lt;/b&gt;" style="text;html=1;align=center;verticalAlign=middle;whiteSpace=wrap;rounded=0;" vertex="1" parent="1">
          <mxGeometry x="1121.76" y="850" width="155" height="30" as="geometry" />
        </mxCell>
        <mxCell id="xZxM6BySM-8g0o_TbWNT-72" value="&lt;b&gt;MY点播集群&lt;/b&gt;" style="text;html=1;align=center;verticalAlign=middle;whiteSpace=wrap;rounded=0;" vertex="1" parent="1">
          <mxGeometry x="1227" y="874" width="110" height="30" as="geometry" />
        </mxCell>
        <mxCell id="xZxM6BySM-8g0o_TbWNT-74" value="&lt;b&gt;MY图片集群&lt;/b&gt;" style="text;html=1;align=center;verticalAlign=middle;whiteSpace=wrap;rounded=0;" vertex="1" parent="1">
          <mxGeometry x="1227" y="981.25" width="110" height="30" as="geometry" />
        </mxCell>
        <mxCell id="xZxM6BySM-8g0o_TbWNT-77" value="&lt;b&gt;热点图片同步&lt;br&gt;（固定Appid）&lt;/b&gt;" style="text;html=1;align=center;verticalAlign=middle;whiteSpace=wrap;rounded=0;" vertex="1" parent="1">
          <mxGeometry x="1121.76" y="955.25" width="155" height="30" as="geometry" />
        </mxCell>
        <mxCell id="xZxM6BySM-8g0o_TbWNT-80" value="热点视频识别" style="text;html=1;align=center;verticalAlign=middle;whiteSpace=wrap;rounded=0;" vertex="1" parent="1">
          <mxGeometry x="762" y="922.5" width="90" height="29" as="geometry" />
        </mxCell>
        <mxCell id="J4hj_I74rFohkeqZcgyv-1" value="" style="rounded=0;whiteSpace=wrap;html=1;fillColor=#dae8fc;strokeColor=#6c8ebf;" vertex="1" parent="1">
          <mxGeometry x="525.74" y="525" width="489" height="80" as="geometry" />
        </mxCell>
        <mxCell id="J4hj_I74rFohkeqZcgyv-2" value="" style="outlineConnect=0;dashed=0;verticalLabelPosition=bottom;verticalAlign=top;align=center;html=1;shape=mxgraph.aws3.bucket_with_objects;fillColor=#d5e8d4;strokeColor=#82b366;" vertex="1" parent="1">
          <mxGeometry x="520.74" y="343" width="90" height="70" as="geometry" />
        </mxCell>
        <mxCell id="J4hj_I74rFohkeqZcgyv-3" value="" style="endArrow=classic;html=1;rounded=0;entryX=0.25;entryY=0;entryDx=0;entryDy=0;fillColor=#d5e8d4;strokeColor=#82b366;strokeWidth=2;exitX=0.084;exitY=0.975;exitDx=0;exitDy=0;edgeStyle=orthogonalEdgeStyle;exitPerimeter=0;" edge="1" parent="1" source="J4hj_I74rFohkeqZcgyv-18">
          <mxGeometry width="50" height="50" relative="1" as="geometry">
            <mxPoint x="564.74" y="242" as="sourcePoint" />
            <mxPoint x="566.21" y="346" as="targetPoint" />
          </mxGeometry>
        </mxCell>
        <mxCell id="J4hj_I74rFohkeqZcgyv-4" value="" style="outlineConnect=0;dashed=0;verticalLabelPosition=bottom;verticalAlign=top;align=center;html=1;shape=mxgraph.aws3.bucket_with_objects;fillColor=#E05243;gradientColor=none;" vertex="1" parent="1">
          <mxGeometry x="790.74" y="346" width="90" height="70" as="geometry" />
        </mxCell>
        <mxCell id="J4hj_I74rFohkeqZcgyv-5" value="&lt;b&gt;download: vod.uss.shopee.io&lt;/b&gt;" style="text;html=1;align=center;verticalAlign=middle;whiteSpace=wrap;rounded=0;" vertex="1" parent="1">
          <mxGeometry x="480.74" y="280" width="180" height="30" as="geometry" />
        </mxCell>
        <mxCell id="J4hj_I74rFohkeqZcgyv-8" style="rounded=0;orthogonalLoop=1;jettySize=auto;html=1;exitX=0.633;exitY=1;exitDx=0;exitDy=0;entryX=0.5;entryY=0;entryDx=0;entryDy=0;entryPerimeter=0;fillColor=#f8cecc;strokeColor=#b85450;strokeWidth=2;exitPerimeter=0;" edge="1" parent="1" source="J4hj_I74rFohkeqZcgyv-18" target="J4hj_I74rFohkeqZcgyv-4">
          <mxGeometry relative="1" as="geometry" />
        </mxCell>
        <mxCell id="J4hj_I74rFohkeqZcgyv-9" value="业务上传" style="rounded=0;whiteSpace=wrap;html=1;fillColor=#ffcc99;strokeColor=#36393d;" vertex="1" parent="1">
          <mxGeometry x="618.74" y="535" width="120" height="60" as="geometry" />
        </mxCell>
        <mxCell id="J4hj_I74rFohkeqZcgyv-10" value="内部流程上传" style="rounded=0;whiteSpace=wrap;html=1;fillColor=#ffcc99;strokeColor=#36393d;" vertex="1" parent="1">
          <mxGeometry x="826.98" y="535" width="120" height="60" as="geometry" />
        </mxCell>
        <mxCell id="J4hj_I74rFohkeqZcgyv-11" style="edgeStyle=orthogonalEdgeStyle;rounded=0;orthogonalLoop=1;jettySize=auto;html=1;exitX=0.08;exitY=0;exitDx=0;exitDy=0;entryX=0.5;entryY=1;entryDx=0;entryDy=0;entryPerimeter=0;fillColor=#d5e8d4;strokeColor=#82b366;endSize=6;strokeWidth=2;exitPerimeter=0;" edge="1" parent="1" source="J4hj_I74rFohkeqZcgyv-1" target="J4hj_I74rFohkeqZcgyv-2">
          <mxGeometry relative="1" as="geometry" />
        </mxCell>
        <mxCell id="J4hj_I74rFohkeqZcgyv-12" style="rounded=0;orthogonalLoop=1;jettySize=auto;html=1;exitX=0.632;exitY=-0.012;exitDx=0;exitDy=0;entryX=0.5;entryY=1;entryDx=0;entryDy=0;entryPerimeter=0;fillColor=#f8cecc;strokeColor=#b85450;strokeWidth=2;exitPerimeter=0;" edge="1" parent="1" source="J4hj_I74rFohkeqZcgyv-1" target="J4hj_I74rFohkeqZcgyv-4">
          <mxGeometry relative="1" as="geometry" />
        </mxCell>
        <mxCell id="J4hj_I74rFohkeqZcgyv-13" value="&lt;b&gt;&amp;nbsp;vod.uss.shopee.io&lt;br&gt;（新数据）&lt;/b&gt;" style="text;html=1;align=center;verticalAlign=middle;whiteSpace=wrap;rounded=0;" vertex="1" parent="1">
          <mxGeometry x="768.74" y="271" width="134" height="30" as="geometry" />
        </mxCell>
        <mxCell id="J4hj_I74rFohkeqZcgyv-14" value="&lt;b&gt;vod.uss.shopee.io&lt;br&gt;（新增文件）&lt;/b&gt;" style="text;html=1;align=center;verticalAlign=middle;whiteSpace=wrap;rounded=0;" vertex="1" parent="1">
          <mxGeometry x="751.74" y="455" width="180" height="30" as="geometry" />
        </mxCell>
        <mxCell id="J4hj_I74rFohkeqZcgyv-15" value="&lt;b&gt;upload: vod.uss.shopee.io&lt;/b&gt;" style="text;html=1;align=center;verticalAlign=middle;whiteSpace=wrap;rounded=0;" vertex="1" parent="1">
          <mxGeometry x="490.74" y="470" width="180" height="30" as="geometry" />
        </mxCell>
        <mxCell id="J4hj_I74rFohkeqZcgyv-16" value="" style="shape=flexArrow;endArrow=classic;html=1;rounded=0;fillColor=#f8cecc;strokeColor=#b85450;dashed=1;" edge="1" parent="1">
          <mxGeometry width="50" height="50" relative="1" as="geometry">
            <mxPoint x="775.74" y="387" as="sourcePoint" />
            <mxPoint x="615.74" y="387" as="targetPoint" />
          </mxGeometry>
        </mxCell>
        <mxCell id="J4hj_I74rFohkeqZcgyv-17" value="容灾恢复数据&lt;br&gt;同步（仅业务Appid）" style="text;html=1;align=center;verticalAlign=middle;whiteSpace=wrap;rounded=0;" vertex="1" parent="1">
          <mxGeometry x="625.74" y="357" width="150" height="24" as="geometry" />
        </mxCell>
        <mxCell id="J4hj_I74rFohkeqZcgyv-18" value="" style="rounded=0;whiteSpace=wrap;html=1;fillColor=#fff2cc;strokeColor=#d6b656;" vertex="1" parent="1">
          <mxGeometry x="525.74" y="140" width="488" height="80" as="geometry" />
        </mxCell>
        <mxCell id="J4hj_I74rFohkeqZcgyv-19" value="CDN 回源" style="rounded=0;whiteSpace=wrap;html=1;fillColor=#ffcc99;strokeColor=#36393d;" vertex="1" parent="1">
          <mxGeometry x="618.74" y="150" width="120" height="60" as="geometry" />
        </mxCell>
        <mxCell id="J4hj_I74rFohkeqZcgyv-20" value="内网下载" style="rounded=0;whiteSpace=wrap;html=1;fillColor=#ffcc99;strokeColor=#36393d;" vertex="1" parent="1">
          <mxGeometry x="819.74" y="150" width="120" height="60" as="geometry" />
        </mxCell>
        <mxCell id="J4hj_I74rFohkeqZcgyv-21" value="&lt;b&gt;业务Appid&lt;/b&gt;" style="text;html=1;align=center;verticalAlign=middle;whiteSpace=wrap;rounded=0;" vertex="1" parent="1">
          <mxGeometry x="788.74" y="370" width="90" height="30" as="geometry" />
        </mxCell>
        <mxCell id="J4hj_I74rFohkeqZcgyv-22" value="&lt;b&gt;USS（SG）&lt;/b&gt;" style="text;html=1;align=center;verticalAlign=middle;whiteSpace=wrap;rounded=0;" vertex="1" parent="1">
          <mxGeometry x="525.74" y="370" width="90" height="30" as="geometry" />
        </mxCell>
        <mxCell id="J4hj_I74rFohkeqZcgyv-23" value="" style="outlineConnect=0;dashed=0;verticalLabelPosition=bottom;verticalAlign=top;align=center;html=1;shape=mxgraph.aws3.bucket_with_objects;fillColor=#E05243;gradientColor=none;" vertex="1" parent="1">
          <mxGeometry x="910.74" y="350" width="90" height="70" as="geometry" />
        </mxCell>
        <mxCell id="J4hj_I74rFohkeqZcgyv-25" value="&lt;b&gt;&amp;nbsp;vod.uss.shopee.io&lt;br&gt;（历史数据）&lt;/b&gt;" style="text;html=1;align=center;verticalAlign=middle;whiteSpace=wrap;rounded=0;" vertex="1" parent="1">
          <mxGeometry x="861.24" y="273" width="201" height="30" as="geometry" />
        </mxCell>
        <mxCell id="J4hj_I74rFohkeqZcgyv-26" value="&lt;b&gt;热点Appid&lt;/b&gt;" style="text;html=1;align=center;verticalAlign=middle;whiteSpace=wrap;rounded=0;" vertex="1" parent="1">
          <mxGeometry x="916.74" y="374" width="90" height="30" as="geometry" />
        </mxCell>
        <mxCell id="J4hj_I74rFohkeqZcgyv-27" style="edgeStyle=orthogonalEdgeStyle;rounded=0;orthogonalLoop=1;jettySize=auto;html=1;exitX=0.5;exitY=0;exitDx=0;exitDy=0;exitPerimeter=0;entryX=0.881;entryY=0.938;entryDx=0;entryDy=0;entryPerimeter=0;fillColor=#f8cecc;strokeColor=#b85450;strokeWidth=2;endArrow=none;endFill=0;startArrow=classic;startFill=1;" edge="1" parent="1" source="J4hj_I74rFohkeqZcgyv-23" target="J4hj_I74rFohkeqZcgyv-18">
          <mxGeometry relative="1" as="geometry" />
        </mxCell>
        <mxCell id="J4hj_I74rFohkeqZcgyv-30" style="rounded=0;orthogonalLoop=1;jettySize=auto;html=1;exitX=0.632;exitY=-0.012;exitDx=0;exitDy=0;entryX=0.5;entryY=1;entryDx=0;entryDy=0;entryPerimeter=0;fillColor=#f8cecc;strokeColor=#b85450;strokeWidth=2;exitPerimeter=0;" edge="1" parent="1">
          <mxGeometry relative="1" as="geometry">
            <mxPoint x="955.24" y="528" as="sourcePoint" />
            <mxPoint x="956.24" y="420" as="targetPoint" />
          </mxGeometry>
        </mxCell>
        <mxCell id="J4hj_I74rFohkeqZcgyv-31" value="&lt;b&gt;vod.uss.shopee.io&lt;br&gt;（删除历史文件）&lt;/b&gt;" style="text;html=1;align=center;verticalAlign=middle;whiteSpace=wrap;rounded=0;" vertex="1" parent="1">
          <mxGeometry x="892" y="490" width="180" height="30" as="geometry" />
        </mxCell>
        <mxCell id="WPdxCpdsx5S1xaeiAmBc-1" value="" style="rounded=0;whiteSpace=wrap;html=1;dashed=1;" vertex="1" parent="1">
          <mxGeometry x="1050" y="140" width="116" height="60" as="geometry" />
        </mxCell>
        <mxCell id="WPdxCpdsx5S1xaeiAmBc-2" value="" style="endArrow=classic;html=1;rounded=0;fillColor=#f8cecc;strokeColor=#b85450;strokeWidth=2;" edge="1" parent="1">
          <mxGeometry width="50" height="50" relative="1" as="geometry">
            <mxPoint x="1060" y="155" as="sourcePoint" />
            <mxPoint x="1100" y="155" as="targetPoint" />
          </mxGeometry>
        </mxCell>
        <mxCell id="WPdxCpdsx5S1xaeiAmBc-3" value="" style="endArrow=classic;html=1;rounded=0;fillColor=#d5e8d4;strokeColor=#82b366;strokeWidth=2;" edge="1" parent="1">
          <mxGeometry width="50" height="50" relative="1" as="geometry">
            <mxPoint x="1060" y="184" as="sourcePoint" />
            <mxPoint x="1100" y="184.13" as="targetPoint" />
          </mxGeometry>
        </mxCell>
        <mxCell id="WPdxCpdsx5S1xaeiAmBc-4" value="正常链路" style="text;html=1;align=center;verticalAlign=middle;whiteSpace=wrap;rounded=0;" vertex="1" parent="1">
          <mxGeometry x="1103" y="170" width="60" height="30" as="geometry" />
        </mxCell>
        <mxCell id="WPdxCpdsx5S1xaeiAmBc-5" value="容灾链路" style="text;html=1;align=center;verticalAlign=middle;whiteSpace=wrap;rounded=0;" vertex="1" parent="1">
          <mxGeometry x="1103" y="140" width="60" height="30" as="geometry" />
        </mxCell>
        <mxCell id="WPdxCpdsx5S1xaeiAmBc-7" style="edgeStyle=orthogonalEdgeStyle;rounded=0;orthogonalLoop=1;jettySize=auto;html=1;exitX=0;exitY=0.5;exitDx=0;exitDy=0;fillColor=#d5e8d4;strokeColor=#82b366;strokeWidth=2;" edge="1" parent="1" source="WPdxCpdsx5S1xaeiAmBc-6" target="J4hj_I74rFohkeqZcgyv-23">
          <mxGeometry relative="1" as="geometry" />
        </mxCell>
        <mxCell id="WPdxCpdsx5S1xaeiAmBc-6" value="热点备份" style="rounded=0;whiteSpace=wrap;html=1;fillColor=#ffcc99;strokeColor=#36393d;" vertex="1" parent="1">
          <mxGeometry x="1048" y="355" width="120" height="60" as="geometry" />
        </mxCell>
        <mxCell id="WPdxCpdsx5S1xaeiAmBc-9" value="&lt;b&gt;MY IDC&lt;/b&gt;" style="text;html=1;align=center;verticalAlign=middle;whiteSpace=wrap;rounded=0;" vertex="1" parent="1">
          <mxGeometry x="864" y="415" width="60" height="30" as="geometry" />
        </mxCell>
        <mxCell id="UEH2vTbXUI8pVYLRnjXU-2" value="&lt;b&gt;热点视频识别（可选）&lt;/b&gt;" style="text;html=1;align=center;verticalAlign=middle;whiteSpace=wrap;rounded=0;" vertex="1" parent="1">
          <mxGeometry x="352" y="768" width="90" height="29" as="geometry" />
        </mxCell>
      </root>
    </mxGraphModel>
  </diagram>
  <diagram id="qw1iIDvoPxhJ2khEGq4O" name="分bucket同步">
    <mxGraphModel dx="1306" dy="825" grid="0" gridSize="10" guides="1" tooltips="1" connect="1" arrows="1" fold="1" page="1" pageScale="1" pageWidth="3300" pageHeight="4681" math="0" shadow="0">
      <root>
        <mxCell id="0" />
        <mxCell id="1" parent="0" />
        <mxCell id="0hSBSSTYj4VTT7stNIFb-2" value="" style="shape=cylinder3;whiteSpace=wrap;html=1;boundedLbl=1;backgroundOutline=1;size=15;fillColor=#f8cecc;strokeColor=#b85450;" vertex="1" parent="1">
          <mxGeometry x="760" y="200" width="120" height="170" as="geometry" />
        </mxCell>
        <mxCell id="0hSBSSTYj4VTT7stNIFb-1" value="" style="shape=cylinder3;whiteSpace=wrap;html=1;boundedLbl=1;backgroundOutline=1;size=15;fillColor=#d5e8d4;strokeColor=#82b366;" vertex="1" parent="1">
          <mxGeometry x="520" y="200" width="120" height="170" as="geometry" />
        </mxCell>
        <mxCell id="H6SnBvJky5nyyXvwIImI-1" value="" style="rounded=0;whiteSpace=wrap;html=1;dashed=1;" vertex="1" parent="1">
          <mxGeometry x="920" y="40" width="116" height="60" as="geometry" />
        </mxCell>
        <mxCell id="H6SnBvJky5nyyXvwIImI-7" value="" style="shape=flexArrow;endArrow=classic;html=1;rounded=0;fillColor=#d5e8d4;strokeColor=#82b366;entryX=0.1;entryY=0.5;entryDx=0;entryDy=0;entryPerimeter=0;" edge="1" parent="1" target="0hSBSSTYj4VTT7stNIFb-6">
          <mxGeometry width="50" height="50" relative="1" as="geometry">
            <mxPoint x="630" y="290.5" as="sourcePoint" />
            <mxPoint x="790" y="290.5" as="targetPoint" />
          </mxGeometry>
        </mxCell>
        <mxCell id="H6SnBvJky5nyyXvwIImI-8" value="正常数据同步" style="text;html=1;align=center;verticalAlign=middle;whiteSpace=wrap;rounded=0;" vertex="1" parent="1">
          <mxGeometry x="625" y="260" width="150" height="24" as="geometry" />
        </mxCell>
        <mxCell id="H6SnBvJky5nyyXvwIImI-17" value="" style="shape=flexArrow;endArrow=classic;html=1;rounded=0;fillColor=#f8cecc;strokeColor=#b85450;dashed=1;" edge="1" parent="1">
          <mxGeometry width="50" height="50" relative="1" as="geometry">
            <mxPoint x="785" y="314" as="sourcePoint" />
            <mxPoint x="625" y="314" as="targetPoint" />
          </mxGeometry>
        </mxCell>
        <mxCell id="H6SnBvJky5nyyXvwIImI-18" value="容灾恢复数据同步&lt;br&gt;（仅反向同步存在的bucket）" style="text;html=1;align=center;verticalAlign=middle;whiteSpace=wrap;rounded=0;" vertex="1" parent="1">
          <mxGeometry x="625" y="324" width="161" height="24" as="geometry" />
        </mxCell>
        <mxCell id="H6SnBvJky5nyyXvwIImI-24" value="" style="endArrow=classic;html=1;rounded=0;fillColor=#f8cecc;strokeColor=#b85450;strokeWidth=2;" edge="1" parent="1">
          <mxGeometry width="50" height="50" relative="1" as="geometry">
            <mxPoint x="930" y="55" as="sourcePoint" />
            <mxPoint x="970" y="55" as="targetPoint" />
          </mxGeometry>
        </mxCell>
        <mxCell id="H6SnBvJky5nyyXvwIImI-25" value="" style="endArrow=classic;html=1;rounded=0;fillColor=#d5e8d4;strokeColor=#82b366;strokeWidth=2;" edge="1" parent="1">
          <mxGeometry width="50" height="50" relative="1" as="geometry">
            <mxPoint x="930" y="84" as="sourcePoint" />
            <mxPoint x="970" y="84.13" as="targetPoint" />
          </mxGeometry>
        </mxCell>
        <mxCell id="H6SnBvJky5nyyXvwIImI-26" value="正常链路" style="text;html=1;align=center;verticalAlign=middle;whiteSpace=wrap;rounded=0;" vertex="1" parent="1">
          <mxGeometry x="973" y="60" width="60" height="40" as="geometry" />
        </mxCell>
        <mxCell id="H6SnBvJky5nyyXvwIImI-27" value="容灾链路" style="text;html=1;align=center;verticalAlign=middle;whiteSpace=wrap;rounded=0;" vertex="1" parent="1">
          <mxGeometry x="973" y="40" width="60" height="30" as="geometry" />
        </mxCell>
        <mxCell id="H6SnBvJky5nyyXvwIImI-28" value="&lt;div&gt;&lt;b&gt;&lt;font color=&quot;#ff0000&quot;&gt;&lt;span style=&quot;background-color: initial;&quot;&gt;202410&lt;/span&gt;&lt;br&gt;&lt;/font&gt;&lt;/b&gt;&lt;/div&gt;&lt;b&gt;&lt;font color=&quot;#ff0000&quot;&gt;202409&lt;br&gt;202408&lt;br&gt;....&lt;br&gt;202110&lt;/font&gt;&lt;/b&gt;&lt;br&gt;202109&lt;br&gt;202108&lt;br&gt;...." style="text;html=1;align=center;verticalAlign=middle;whiteSpace=wrap;rounded=0;" vertex="1" parent="1">
          <mxGeometry x="555" y="250" width="50" height="120" as="geometry" />
        </mxCell>
        <mxCell id="H6SnBvJky5nyyXvwIImI-23" value="&lt;b&gt;USS（SG）&lt;/b&gt;" style="text;html=1;align=center;verticalAlign=middle;whiteSpace=wrap;rounded=0;" vertex="1" parent="1">
          <mxGeometry x="540" y="230" width="90" height="30" as="geometry" />
        </mxCell>
        <mxCell id="0hSBSSTYj4VTT7stNIFb-3" value="&lt;div&gt;&lt;b&gt;&lt;font color=&quot;#ff0000&quot;&gt;&lt;span style=&quot;background-color: initial;&quot;&gt;202410&lt;/span&gt;&lt;br&gt;&lt;/font&gt;&lt;/b&gt;&lt;/div&gt;&lt;b&gt;&lt;font color=&quot;#ff0000&quot;&gt;202409&lt;br&gt;202408&lt;br&gt;....&lt;br&gt;202110&lt;/font&gt;&lt;/b&gt;&lt;div&gt;&lt;br/&gt;&lt;/div&gt;" style="text;html=1;align=center;verticalAlign=middle;whiteSpace=wrap;rounded=0;" vertex="1" parent="1">
          <mxGeometry x="795" y="248" width="55" height="100" as="geometry" />
        </mxCell>
        <mxCell id="0hSBSSTYj4VTT7stNIFb-4" value="&lt;b&gt;USS（MY）&lt;/b&gt;" style="text;html=1;align=center;verticalAlign=middle;whiteSpace=wrap;rounded=0;" vertex="1" parent="1">
          <mxGeometry x="780" y="230" width="90" height="30" as="geometry" />
        </mxCell>
        <mxCell id="0hSBSSTYj4VTT7stNIFb-5" value="" style="shape=curlyBracket;whiteSpace=wrap;html=1;rounded=1;flipH=1;labelPosition=right;verticalLabelPosition=middle;align=left;verticalAlign=middle;" vertex="1" parent="1">
          <mxGeometry x="605" y="256" width="20" height="70" as="geometry" />
        </mxCell>
        <mxCell id="0hSBSSTYj4VTT7stNIFb-6" value="" style="shape=curlyBracket;whiteSpace=wrap;html=1;rounded=1;labelPosition=left;verticalLabelPosition=middle;align=right;verticalAlign=middle;" vertex="1" parent="1">
          <mxGeometry x="780" y="254" width="20" height="74" as="geometry" />
        </mxCell>
        <mxCell id="eiwF6-POepIor7fNer2g-5" style="rounded=0;orthogonalLoop=1;jettySize=auto;html=1;exitX=0;exitY=0.5;exitDx=0;exitDy=0;dashed=1;" edge="1" parent="1" source="eiwF6-POepIor7fNer2g-4" target="0hSBSSTYj4VTT7stNIFb-3">
          <mxGeometry relative="1" as="geometry" />
        </mxCell>
        <mxCell id="eiwF6-POepIor7fNer2g-4" value="1. 每个bucket都配置&lt;b&gt;x&lt;/b&gt;天过期，并删除bucket&lt;br&gt;2. 灾备集群的过期配置不能&lt;br&gt;同步回主集群" style="text;html=1;align=left;verticalAlign=middle;whiteSpace=wrap;rounded=0;" vertex="1" parent="1">
          <mxGeometry x="888" y="260" width="169" height="56" as="geometry" />
        </mxCell>
        <mxCell id="Axj4Fuu8tMV_Ji_yNuo7-2" value="" style="endArrow=classic;html=1;rounded=0;entryX=0.5;entryY=0;entryDx=0;entryDy=0;fillColor=#d5e8d4;strokeColor=#82b366;strokeWidth=2;exitX=0.25;exitY=1;exitDx=0;exitDy=0;edgeStyle=orthogonalEdgeStyle;entryPerimeter=0;" edge="1" parent="1" source="Axj4Fuu8tMV_Ji_yNuo7-6" target="0hSBSSTYj4VTT7stNIFb-1">
          <mxGeometry width="50" height="50" relative="1" as="geometry">
            <mxPoint x="564" y="104" as="sourcePoint" />
            <mxPoint x="565.47" y="208" as="targetPoint" />
          </mxGeometry>
        </mxCell>
        <mxCell id="Axj4Fuu8tMV_Ji_yNuo7-3" value="&lt;b&gt;download: vod.uss.shopee.io&lt;/b&gt;" style="text;html=1;align=center;verticalAlign=middle;whiteSpace=wrap;rounded=0;" vertex="1" parent="1">
          <mxGeometry x="510" y="130" width="180" height="30" as="geometry" />
        </mxCell>
        <mxCell id="Axj4Fuu8tMV_Ji_yNuo7-4" style="edgeStyle=orthogonalEdgeStyle;rounded=0;orthogonalLoop=1;jettySize=auto;html=1;exitX=0.75;exitY=1;exitDx=0;exitDy=0;entryX=0.45;entryY=0.018;entryDx=0;entryDy=0;entryPerimeter=0;fillColor=#f8cecc;strokeColor=#b85450;strokeWidth=2;" edge="1" parent="1" source="Axj4Fuu8tMV_Ji_yNuo7-6" target="0hSBSSTYj4VTT7stNIFb-2">
          <mxGeometry relative="1" as="geometry">
            <mxPoint x="835" y="208" as="targetPoint" />
          </mxGeometry>
        </mxCell>
        <mxCell id="Axj4Fuu8tMV_Ji_yNuo7-5" value="&lt;b&gt;download: vod.uss.shopee.io&lt;/b&gt;" style="text;html=1;align=center;verticalAlign=middle;whiteSpace=wrap;rounded=0;" vertex="1" parent="1">
          <mxGeometry x="708" y="130" width="180" height="30" as="geometry" />
        </mxCell>
        <mxCell id="Axj4Fuu8tMV_Ji_yNuo7-6" value="" style="rounded=0;whiteSpace=wrap;html=1;fillColor=#fff2cc;strokeColor=#d6b656;" vertex="1" parent="1">
          <mxGeometry x="528" y="40" width="340" height="80" as="geometry" />
        </mxCell>
        <mxCell id="Axj4Fuu8tMV_Ji_yNuo7-7" value="CDN 回源" style="rounded=0;whiteSpace=wrap;html=1;fillColor=#ffcc99;strokeColor=#36393d;" vertex="1" parent="1">
          <mxGeometry x="563" y="50" width="120" height="60" as="geometry" />
        </mxCell>
        <mxCell id="Axj4Fuu8tMV_Ji_yNuo7-8" value="内网下载" style="rounded=0;whiteSpace=wrap;html=1;fillColor=#ffcc99;strokeColor=#36393d;" vertex="1" parent="1">
          <mxGeometry x="708" y="50" width="120" height="60" as="geometry" />
        </mxCell>
        <mxCell id="QCEeie25gG0nK_NBLrzv-1" value="" style="rounded=0;whiteSpace=wrap;html=1;fillColor=#dae8fc;strokeColor=#6c8ebf;" vertex="1" parent="1">
          <mxGeometry x="525" y="445" width="340" height="80" as="geometry" />
        </mxCell>
        <mxCell id="QCEeie25gG0nK_NBLrzv-3" value="业务上传" style="rounded=0;whiteSpace=wrap;html=1;fillColor=#ffcc99;strokeColor=#36393d;" vertex="1" parent="1">
          <mxGeometry x="560" y="455" width="120" height="60" as="geometry" />
        </mxCell>
        <mxCell id="QCEeie25gG0nK_NBLrzv-4" value="内部流程上传" style="rounded=0;whiteSpace=wrap;html=1;fillColor=#ffcc99;strokeColor=#36393d;" vertex="1" parent="1">
          <mxGeometry x="705" y="455" width="120" height="60" as="geometry" />
        </mxCell>
        <mxCell id="QCEeie25gG0nK_NBLrzv-5" style="edgeStyle=orthogonalEdgeStyle;rounded=0;orthogonalLoop=1;jettySize=auto;html=1;exitX=0.25;exitY=0;exitDx=0;exitDy=0;entryX=0.5;entryY=1;entryDx=0;entryDy=0;fillColor=#d5e8d4;strokeColor=#82b366;endSize=6;strokeWidth=2;" edge="1" parent="1" source="QCEeie25gG0nK_NBLrzv-1" target="H6SnBvJky5nyyXvwIImI-28">
          <mxGeometry relative="1" as="geometry">
            <mxPoint x="565" y="400" as="targetPoint" />
          </mxGeometry>
        </mxCell>
        <mxCell id="QCEeie25gG0nK_NBLrzv-6" style="edgeStyle=orthogonalEdgeStyle;rounded=0;orthogonalLoop=1;jettySize=auto;html=1;exitX=0.75;exitY=0;exitDx=0;exitDy=0;entryX=0.5;entryY=1;entryDx=0;entryDy=0;entryPerimeter=0;fillColor=#f8cecc;strokeColor=#b85450;strokeWidth=2;" edge="1" parent="1" source="QCEeie25gG0nK_NBLrzv-1" target="0hSBSSTYj4VTT7stNIFb-2">
          <mxGeometry relative="1" as="geometry">
            <mxPoint x="835" y="403" as="targetPoint" />
          </mxGeometry>
        </mxCell>
        <mxCell id="QCEeie25gG0nK_NBLrzv-7" value="&lt;b&gt;upload: vod.uss.shopee.io&lt;/b&gt;" style="text;html=1;align=center;verticalAlign=middle;whiteSpace=wrap;rounded=0;" vertex="1" parent="1">
          <mxGeometry x="708" y="403" width="180" height="30" as="geometry" />
        </mxCell>
        <mxCell id="QCEeie25gG0nK_NBLrzv-8" value="&lt;b&gt;upload: vod.uss.shopee.io&lt;/b&gt;" style="text;html=1;align=center;verticalAlign=middle;whiteSpace=wrap;rounded=0;" vertex="1" parent="1">
          <mxGeometry x="520" y="404" width="180" height="30" as="geometry" />
        </mxCell>
      </root>
    </mxGraphModel>
  </diagram>
</mxfile>
